<?xml version="1.0" encoding="iso-8859-1"?>
<!-- Uploaded to: SVG Repo, www.svgrepo.com, Generator: SVG Repo Mixer Tools -->
<svg height="800px" width="800px" version="1.1" id="Layer_1" xmlns="http://www.w3.org/2000/svg" xmlns:xlink="http://www.w3.org/1999/xlink" 
	 viewBox="0 0 512 512" xml:space="preserve">
<polygon style="fill:#FF3502;" points="85.46,85.333 85.46,374.154 324.217,512 426.541,452.923 426.541,164.103 324.217,223.179 
	"/>
<polygon style="fill:#CD2A01;" points="426.541,164.103 426.541,452.923 324.217,512 324.217,223.179 "/>
<polygon style="fill:#AD2201;" points="74.09,65.641 187.784,0 437.91,144.41 426.541,164.103 324.217,223.179 85.46,85.333 "/>
<polygon style="fill:#891D00;" points="74.09,65.641 85.46,85.333 324.217,223.179 324.217,210.051 "/>
<g>
	<polygon style="fill:#791900;" points="324.217,223.179 426.541,164.103 437.91,144.41 324.217,210.051 	"/>
	<polygon style="fill:#791900;" points="96.829,65.641 187.784,13.128 415.172,144.41 324.217,196.923 	"/>
	<polygon style="fill:#791900;" points="108.198,72.205 187.784,26.256 187.784,13.128 96.829,65.641 	"/>
</g>
<polygon style="fill:#891D00;" points="187.784,26.256 403.802,150.974 415.172,144.41 187.784,13.128 "/>
<g>
	<polygon style="fill:#59A4FF;" points="108.198,177.231 108.198,124.718 130.937,137.846 130.937,190.359 	"/>
	<polygon style="fill:#59A4FF;" points="150.833,201.847 150.833,149.334 173.573,162.462 173.573,214.975 	"/>
	<polygon style="fill:#59A4FF;" points="193.469,226.462 193.469,173.949 216.208,187.077 216.208,239.59 	"/>
	<polygon style="fill:#59A4FF;" points="236.104,251.077 236.104,198.565 258.842,211.693 258.842,264.206 	"/>
	<polygon style="fill:#59A4FF;" points="278.739,275.692 278.739,223.179 301.477,236.308 301.477,288.82 	"/>
	<polygon style="fill:#59A4FF;" points="108.198,268.959 108.198,216.446 130.937,229.574 130.937,282.087 	"/>
	<polygon style="fill:#59A4FF;" points="150.833,293.574 150.833,241.061 173.573,254.189 173.573,306.702 	"/>
	<polygon style="fill:#59A4FF;" points="193.469,318.19 193.469,265.677 216.208,278.805 216.208,331.318 	"/>
	<polygon style="fill:#59A4FF;" points="236.104,342.805 236.104,290.292 258.842,303.42 258.842,355.933 	"/>
	<polygon style="fill:#59A4FF;" points="278.739,367.42 278.739,314.908 301.477,328.036 301.477,380.549 	"/>
	<polygon style="fill:#59A4FF;" points="108.198,360.686 108.198,308.173 130.937,321.301 130.937,373.814 	"/>
	<polygon style="fill:#59A4FF;" points="150.833,385.302 150.833,332.789 173.573,345.917 173.573,398.43 	"/>
	<polygon style="fill:#59A4FF;" points="193.469,409.917 193.469,357.404 216.208,370.532 216.208,423.045 	"/>
	<polygon style="fill:#59A4FF;" points="236.104,434.533 236.104,382.02 258.842,395.148 258.842,447.661 	"/>
	<polygon style="fill:#59A4FF;" points="278.739,459.148 278.739,406.635 301.477,419.763 301.477,472.276 	"/>
</g>
<g>
	<polygon style="fill:#3D99E2;" points="369.694,275.692 369.694,223.179 346.955,236.308 346.955,288.82 	"/>
	<polygon style="fill:#3D99E2;" points="403.802,256 403.802,203.487 381.064,216.615 381.064,269.128 	"/>
	<polygon style="fill:#3D99E2;" points="369.694,367.59 369.694,315.077 346.955,328.205 346.955,380.718 	"/>
	<polygon style="fill:#3D99E2;" points="403.802,347.897 403.802,295.385 381.064,308.513 381.064,361.026 	"/>
	<polygon style="fill:#3D99E2;" points="369.694,459.487 369.694,406.974 346.955,420.103 346.955,472.615 	"/>
	<polygon style="fill:#3D99E2;" points="403.802,439.795 403.802,387.282 381.064,400.41 381.064,452.923 	"/>
</g>
<polygon style="fill:#891D00;" points="85.46,164.103 324.2,301.93 324.2,322.521 74.09,178.111 74.09,170.667 "/>
<polygon style="fill:#AD2201;" points="324.2,301.93 426.247,242.703 437.91,249.436 324.2,314.908 74.09,170.667 85.46,164.103 "/>
<polygon style="fill:#791900;" points="324.2,322.521 437.91,256.88 437.91,249.436 324.2,314.908 "/>
<polygon style="fill:#891D00;" points="85.46,256 324.2,393.827 324.2,414.418 74.09,270.008 74.09,262.564 "/>
<polygon style="fill:#AD2201;" points="324.2,393.827 426.247,334.6 437.91,341.333 324.2,406.805 74.09,262.564 85.46,256 "/>
<polygon style="fill:#791900;" points="324.2,414.418 437.91,348.777 437.91,341.333 324.2,406.805 "/>
<polygon style="fill:#E0E0E2;" points="307.586,123.505 330.325,110.377 378.296,137.975 378.296,151.103 355.558,164.231 
	307.586,136.633 "/>
<polygon style="fill:#C6C5CB;" points="307.586,123.505 307.586,136.633 355.558,164.231 355.558,151.103 "/>
<polygon style="fill:#ACABB1;" points="355.558,164.231 378.296,151.103 378.296,137.975 355.558,151.103 "/>
<polygon style="fill:#E0E0E2;" points="270.246,146.461 292.984,133.333 340.956,160.931 340.956,174.059 318.218,187.188 
	270.246,159.59 "/>
<polygon style="fill:#C6C5CB;" points="270.246,146.461 270.246,159.59 318.218,187.188 318.218,174.059 "/>
<polygon style="fill:#ACABB1;" points="318.218,187.188 340.956,174.059 340.956,160.931 318.218,174.059 "/>
<polygon style="fill:#E0E0E2;" points="142.307,52.513 187.784,26.256 233.262,52.513 233.262,78.769 187.784,105.026 
	142.307,78.769 "/>
<polygon style="fill:#C6C5CB;" points="142.307,52.513 142.307,78.769 187.784,105.026 187.784,78.769 "/>
<polygon style="fill:#ACABB1;" points="187.784,105.026 233.262,78.769 233.262,52.513 187.784,78.769 "/>
<path style="fill:#C6C5CB;" d="M253.979,120.765v-7.193l0,0c0.003-2.379-1.558-4.758-4.685-6.564c-6.253-3.61-16.485-3.61-22.739,0
	c-3.127,1.806-4.693,4.185-4.694,6.564l0,0v7.193l0,0c-0.004,2.379,1.556,4.758,4.68,6.562c6.246,3.606,16.478,3.606,22.739,0
	C252.412,125.524,253.978,123.144,253.979,120.765L253.979,120.765z"/>
<path style="fill:#E0E0E2;" d="M226.555,107.008c-6.253,3.61-6.259,9.515-0.014,13.121c6.246,3.606,16.478,3.606,22.739,0
	c6.26-3.606,6.266-9.511,0.014-13.121C243.04,103.398,232.807,103.398,226.555,107.008z"/>
<path style="fill:#C6C5CB;" d="M288.022,101.11v-7.193l0,0c0.003-2.379-1.558-4.759-4.685-6.564c-6.253-3.61-16.486-3.61-22.738,0
	c-3.127,1.806-4.693,4.185-4.694,6.564l0,0v7.193l0,0c-0.004,2.379,1.556,4.759,4.68,6.562c6.245,3.606,16.478,3.606,22.738,0
	C286.455,105.869,288.021,103.49,288.022,101.11L288.022,101.11z"/>
<path style="fill:#E0E0E2;" d="M260.598,87.353c-6.253,3.61-6.259,9.515-0.014,13.121c6.245,3.606,16.478,3.606,22.738,0
	c6.26-3.606,6.266-9.511,0.014-13.121C277.083,83.743,266.85,83.743,260.598,87.353z"/>
</svg>